<?xml version="1.0" encoding="utf-8"?>
<!-- Generator: Adobe Illustrator 22.0.1, SVG Export Plug-In . SVG Version: 6.00 Build 0)  -->
<svg version="1.1" id="Layer_1" xmlns="http://www.w3.org/2000/svg" xmlns:xlink="http://www.w3.org/1999/xlink" x="0px" y="0px"
	 viewBox="0 0 188.5 286.4" style="enable-background:new 0 0 188.5 286.4;" xml:space="preserve">
<g>
	<g>
		<path d="M0,133.5V0h30v7.5H7.5v53.2H30v7.5H7.5V126H30v7.5H0z"/>
		<path d="M34.7,103.5V0h7.5v103.5l7.5,15l7.5-15V0h7.5v103.5l-15,30L34.7,103.5z"/>
		<path d="M69.4,133.5V7.5c0-2,0.7-3.8,2.1-5.3C73,0.7,74.8,0,76.9,0h15c2,0,3.8,0.7,5.3,2.2c1.5,1.5,2.2,3.2,2.2,5.3v126h-7.5V68.2
			h-15v65.3H69.4z M91.9,60.7V11.2c0-1-0.4-1.9-1.2-2.6c-0.7-0.8-1.6-1.2-2.6-1.2h-7.5c-1.1,0-2,0.4-2.7,1.2
			c-0.7,0.7-1.1,1.6-1.1,2.6v49.4H91.9z"/>
		<path d="M104,133.5V0h7.5l15,30V0h7.5v133.5h-7.5V45l-15-30v118.5H104z"/>
	</g>
	<g>
		<path d="M0,286.7V153.2h22.5v7.5h-15v53.2h15v7.5h-15v65.3H0z"/>
		<path d="M34.7,286.7c-2.1,0-3.9-0.7-5.4-2.1c-1.4-1.5-2.1-3.3-2.1-5.4v-126h7.5v122.3c0,1.1,0.4,2,1.1,2.7s1.6,1.1,2.7,1.1h7.5
			c1,0,1.9-0.4,2.6-1.1c0.8-0.7,1.2-1.6,1.2-2.7V153.2h7.5v126c0,2.1-0.7,3.9-2.2,5.4c-1.5,1.4-3.2,2.1-5.3,2.1H34.7z"/>
		<path d="M61.9,286.7V153.2h7.5v126h22.5v7.5H61.9z"/>
		<path d="M96.5,286.7V153.2h7.5v126h22.5v7.5H96.5z"/>
		<path d="M131.2,286.7V153.2h22.5v7.5h-15v53.2h15v7.5h-15v57.8h15v7.5H131.2z"/>
		<path d="M158.4,286.7V153.2h22.5c2,0,3.8,0.7,5.3,2.2c1.5,1.5,2.2,3.2,2.2,5.3l0.2,49.4c0,2.2-0.8,4.1-2.3,5.5
			c-1.4,1.4-5,2.2-7.1,2.2c2,0,5.7,0.8,7.1,2.4c1.6,1.4,2.3,3.2,2.3,5.3l-0.2,61.2h-7.5v-61.6c0-1-0.4-1.9-1.2-2.6
			c-0.7-0.8-1.6-1.2-2.6-1.2h-11.2v65.3H158.4z M177.2,213.9c1,0,1.9-0.4,2.6-1.1c0.8-0.7,1.2-1.6,1.2-2.7v-45.7
			c0-1-0.4-1.9-1.2-2.6c-0.7-0.8-1.6-1.2-2.6-1.2h-11.2v53.2H177.2z"/>
	</g>
</g>
</svg>
